HIERARCHY
ROOT Hips
{
	OFFSET -3.958830 18.904000 13.208200
	CHANNELS 6 Xposition Yposition Zposition Zrotation Yrotation Xrotation 
	JOINT LHipJoint
	{
		OFFSET 0.000000 0.000000 0.000000
		CHANNELS 3 Zrotation Yrotation Xrotation
		JOINT LeftUpLeg
		{
			OFFSET 1.800000 -1.400000 0.085000
			CHANNELS 3 Zrotation Yrotation Xrotation
			JOINT LeftLeg
			{
				OFFSET 2.215000 -6.000000 0.000000
				CHANNELS 3 Zrotation Yrotation Xrotation
				JOINT LeftFoot
				{
					OFFSET 2.500000 -6.900000 0.000000
					CHANNELS 3 Zrotation Yrotation Xrotation
					JOINT LeftToeBase
					{
						OFFSET 0.200000 -0.500000 1.950000
						CHANNELS 3 Zrotation Yrotation Xrotation
						End Site
						{
							OFFSET 0.000000 0.000000 0.000000
						}
					}
				}
			}
		}
	}
	JOINT RHipJoint
	{
		OFFSET 0.000000 0.000000 0.000000
		CHANNELS 3 Zrotation Yrotation Xrotation
		JOINT RightUpLeg
		{
			OFFSET -1.800000 -1.400000 0.085000
			CHANNELS 3 Zrotation Yrotation Xrotation
			JOINT RightLeg
			{
				OFFSET -2.215000 -6.000000 0.000000
				CHANNELS 3 Zrotation Yrotation Xrotation
				JOINT RightFoot
				{
					OFFSET -2.500000 -6.900000 0.000000
					CHANNELS 3 Zrotation Yrotation Xrotation
					JOINT RightToeBase
					{
						OFFSET -0.200000 -0.500000 1.950000
						CHANNELS 3 Zrotation Yrotation Xrotation
						End Site
						{
							OFFSET 0.000000 0.000000 0.000000
						}
					}
				}
			}
		}
	}
	JOINT LowerBack
	{
		OFFSET 0.000000 0.000000 0.000000
		CHANNELS 3 Zrotation Yrotation Xrotation
		JOINT Spine
		{
			OFFSET -0.087000 1.940000 -0.288900
			CHANNELS 3 Zrotation Yrotation Xrotation
			JOINT Spine1
			{
				OFFSET 0.000000 1.950000 0.060000
				CHANNELS 3 Zrotation Yrotation Xrotation
				JOINT Neck
				{
					OFFSET 0.000000 0.000000 0.000000
					CHANNELS 3 Zrotation Yrotation Xrotation
					JOINT Neck1
					{
						OFFSET 0.000000 1.600000 0.340000
						CHANNELS 3 Zrotation Yrotation Xrotation
						JOINT Head
						{
							OFFSET 0.000000 1.667000 -0.240000
							CHANNELS 3 Zrotation Yrotation Xrotation
							End Site
							{
								OFFSET 0.000000 0.000000 0.000000
							}
						}
					}
				}
				JOINT LeftShoulder
				{
					OFFSET 0.000000 0.000000 0.000000
					CHANNELS 3 Zrotation Yrotation Xrotation
					JOINT LeftArm
					{
						OFFSET 2.700000 1.550000 -0.730000
						CHANNELS 3 Zrotation Yrotation Xrotation
						JOINT LeftForeArm
						{
							OFFSET 5.450000 0.000000 0.000000
							CHANNELS 3 Zrotation Yrotation Xrotation
							JOINT LeftHand
							{
								OFFSET 3.450000 0.000000 0.000000
								CHANNELS 3 Zrotation Yrotation Xrotation
								JOINT LeftHandIndex1
								{
									OFFSET 0.750000 0.000000 0.000000
									CHANNELS 3 Zrotation Yrotation Xrotation
									End Site
									{
										OFFSET 0.000000 0.000000 0.000000
									}
								}
							}
						}
					}
				}
				JOINT RightShoulder
				{
					OFFSET 0.000000 0.000000 0.000000
					CHANNELS 3 Zrotation Yrotation Xrotation
					JOINT RightArm
					{
						OFFSET -2.700000 1.550000 -0.730000
						CHANNELS 3 Zrotation Yrotation Xrotation
						JOINT RightForeArm
						{
							OFFSET -5.450000 0.000000 0.000000
							CHANNELS 3 Zrotation Yrotation Xrotation
							JOINT RightHand
							{
								OFFSET -3.450000 0.000000 0.000000
								CHANNELS 3 Zrotation Yrotation Xrotation
								JOINT RightHandIndex1
								{
									OFFSET -0.750000 0.000000 0.000000
									CHANNELS 3 Zrotation Yrotation Xrotation
									End Site
									{
										OFFSET 0.000000 0.000000 0.000000
									}
								}
							}
						}
					}
				}
			}
		}
	}
}
MOTION
Frames: 8
Frame Time: 0.016667
-0.493480 16.632070 -2.716960 -0.166987 -7.529022 -8.326413 -14.863159 12.111868 3.927418 35.540165 2.215663 -17.042051 -8.276760 9.239363 15.779356 0.007135 6.679994 1.966443 0.379200 0.030180 0.333880 18.732268 -10.246119 2.663358 -10.211588 7.307052 -19.954308 11.819662 -14.253358 45.486460 -1.160356 -7.595560 1.697856 -0.100050 -0.115560 0.172570 -4.723205 -0.638534 -8.199271 35.874607 -18.479094 31.056897 -24.845264 -5.329367 9.193285 11.026944 -9.217201 -14.012664 -23.787986 8.642739 44.453228 -6.355280 -0.939710 -14.687510 -19.079323 -9.702637 4.653147 -29.068457 2.473287 -3.017729 11.197482 -4.224337 -1.067809 -3.559940 2.910801 0.642360 -0.240500 0.171060 0.058100 -3.166661 15.832040 9.961431 18.106219 -2.936241 -16.216971 -106.327266 33.544587 -51.368798 2.077213 -1.684315 -0.004600 0.108160 0.034450 -0.196010 
-0.480920 16.619170 -2.698530 -0.185014 -6.051869 -8.288900 -14.853268 12.297710 3.771211 34.193237 1.849171 -16.324415 -6.626911 8.062427 12.846660 -0.070455 6.183860 2.164885 0.357050 -0.015870 0.316970 18.695244 -10.274629 2.682098 -10.565380 6.867665 -20.016455 12.146352 -14.717998 45.689244 -1.163941 -7.725941 1.657458 -0.110310 -0.088430 0.177680 -4.665611 -0.910286 -8.124941 36.281101 -18.712898 30.094007 -24.382680 -5.922901 8.896762 11.079110 -9.393144 -13.814071 -23.969970 8.405161 44.082432 -6.581810 -1.178330 -13.810560 -19.079066 -9.238459 4.371286 -29.762336 2.353541 -3.195952 11.429354 -4.711035 -1.183416 -3.583776 2.910206 0.644210 -0.220130 0.142180 0.055820 -3.321215 15.457277 9.998501 18.594214 -2.638785 -15.970442 -108.974438 31.683776 -51.689086 2.073894 -1.744333 -0.027970 0.108810 0.056530 -0.204430 
-0.442090 16.602110 -2.667710 -0.693035 -4.355883 -7.287497 -14.842297 12.503480 3.576201 32.079957 1.349531 -15.324172 -3.216609 6.249956 7.611031 -0.187042 5.507623 2.475763 0.268940 -0.140070 0.244940 18.650835 -10.262848 2.745221 -10.494615 6.629099 -20.677519 12.451907 -15.073605 45.664661 -1.122725 -7.813885 1.631301 -0.139580 0.009410 0.180910 -4.598653 -1.253609 -8.009890 38.478039 -19.004762 27.782222 -24.257687 -6.352098 7.928577 11.393018 -10.158970 -13.436734 -24.966315 7.988018 42.304075 -7.527700 -1.541260 -11.921450 -19.237558 -7.999825 3.607849 -30.786895 2.074150 -3.315030 11.302984 -5.395712 -1.344924 -3.670250 2.869388 0.634730 -0.157540 0.065830 0.048900 -3.903610 15.031046 9.948562 18.974000 -1.259989 -15.510363 -113.904883 26.562259 -49.669666 2.067358 -1.856156 -0.098260 0.144300 0.132480 -0.208330 
-0.397110 16.584010 -2.634580 -1.102972 -2.945302 -5.969103 -14.833580 12.601206 3.469390 29.941755 0.818649 -14.831239 -0.449949 5.027931 3.530761 -0.258131 5.065160 2.719828 0.205920 -0.220010 0.195860 18.624055 -10.226128 2.813551 -10.635792 6.486813 -21.705031 12.939223 -15.391609 45.414262 -1.088380 -7.853246 1.644337 -0.156540 0.088590 0.160630 -4.563745 -1.476228 -7.943822 40.879119 -18.943637 25.410645 -24.399142 -6.298981 6.703762 11.654264 -10.506767 -12.989326 -25.046592 7.090405 40.911344 -9.090010 -1.567350 -10.788860 -19.925978 -6.920136 2.716790 -31.092825 1.612626 -3.297787 10.910511 -5.238659 -1.364245 -3.741908 2.798311 0.625400 -0.106310 0.007770 0.061210 -3.932723 14.483199 9.956104 19.391821 -0.746182 -14.862095 -120.251362 21.897759 -48.624077 2.042412 -1.943743 -0.162480 0.199110 0.171220 -0.210900 
-0.365780 16.589150 -2.632560 -1.341182 -2.233418 -6.447790 -14.847741 12.790962 3.418879 28.585620 0.609657 -13.522118 1.013737 4.533990 1.611099 -0.211665 4.841168 2.835157 0.245330 -0.154460 0.190850 18.571905 -10.253806 2.770737 -10.110630 6.183342 -21.044163 12.194154 -15.058692 45.667158 -1.102460 -7.795544 1.675812 -0.140190 0.063670 0.145010 -4.464242 -1.771722 -7.883828 41.307651 -19.631638 25.765029 -23.760403 -6.793775 6.624782 11.789796 -10.882063 -13.363615 -26.083515 7.235631 40.856473 -8.228400 -2.146690 -11.234670 -19.943798 -7.449481 3.049546 -31.796120 2.113640 -3.425137 10.756207 -4.842907 -1.282877 -3.678388 2.843583 0.614210 -0.140260 0.027040 0.091890 -4.097510 15.578208 10.150132 19.095455 0.283688 -14.890009 -124.938547 17.163046 -46.306112 2.054341 -2.054720 -0.129320 0.190820 0.130780 -0.183920 
-0.356550 16.603680 -2.648920 -1.395586 -1.820298 -7.772334 -14.880591 13.077267 3.363993 27.695594 0.655849 -12.414233 2.094970 4.365240 1.310686 -0.161569 4.704123 2.906584 0.301020 -0.066800 0.202530 18.497833 -10.301558 2.702248 -9.350488 5.881413 -19.641721 11.021173 -14.428986 45.985694 -1.111820 -7.681005 1.744852 -0.111140 0.033110 0.115110 -4.311605 -2.168265 -7.838158 40.259783 -20.123265 27.780398 -22.218696 -7.278046 6.684736 11.790727 -11.252577 -13.677257 -27.270434 7.591404 41.459966 -6.505740 -3.207210 -12.397960 -20.181777 -8.150544 3.270297 -32.517991 2.054640 -3.570462 11.434771 -3.977502 -1.202528 -3.614482 2.865566 0.606030 -0.183160 0.053950 0.123870 -3.717273 16.819390 10.366265 18.293348 1.534234 -14.752950 -128.652793 13.814965 -44.999673 2.055118 -2.104126 -0.095470 0.202620 0.076760 -0.156100 
-0.353580 16.604710 -2.662590 -1.172562 -1.292236 -8.598982 -14.897792 13.274463 3.314603 26.902675 0.698999 -11.885375 2.443182 4.297557 1.514989 -0.155203 4.601069 2.937804 0.327730 -0.022530 0.209020 18.449184 -10.358471 2.666421 -9.089628 5.668563 -18.805552 10.172393 -14.001765 46.285871 -1.115796 -7.622753 1.763257 -0.096040 0.002080 0.106190 -4.221852 -2.395520 -7.816420 39.173314 -20.162178 29.176393 -21.154229 -7.450526 6.901471 11.721113 -11.064577 -13.817864 -26.967872 7.588246 42.356280 -5.338380 -3.689700 -13.307370 -20.362295 -8.831331 3.481866 -32.335964 2.038215 -3.673337 11.820317 -3.544885 -1.189827 -3.582485 2.889994 0.608980 -0.212710 0.073760 0.125440 -3.344202 17.514984 10.515762 17.837242 2.474582 -14.466848 -131.671293 11.210172 -43.573803 2.051630 -2.143255 -0.073950 0.193380 0.059470 -0.148820 
-0.359710 16.605300 -2.683700 -0.993588 -0.789527 -9.220212 -14.915460 13.384236 3.310487 26.722164 0.796963 -11.926775 2.023038 4.392647 2.152225 -0.134861 4.562958 2.944632 0.360230 0.025220 0.228180 18.415088 -10.384465 2.639977 -8.918700 5.539292 -18.143409 9.768941 -13.681141 46.200895 -1.123045 -7.546505 1.794282 -0.083280 -0.022820 0.102320 -4.156092 -2.540591 -7.833156 37.993499 -19.891884 30.495395 -20.103541 -7.346728 7.097548 11.491641 -10.585265 -13.903019 -25.958170 7.264051 43.164935 -4.569800 -3.851610 -13.944750 -20.427472 -9.544184 3.745080 -31.249196 1.935083 -3.577718 10.931699 -3.580716 -1.159400 -3.546443 2.900594 0.608580 -0.233800 0.098740 0.139810 -2.780046 17.940908 10.634207 17.589634 2.676796 -14.172399 -134.464683 9.541615 -43.307288 2.044221 -2.181311 -0.051210 0.187130 0.026700 -0.140040 
